<svg xmlns="http://www.w3.org/2000/svg" xmlns:xlink="http://www.w3.org/1999/xlink" width="164" height="164" viewBox="0 0 164 164">
    <defs>
        <path id="prefix__a" d="M0.066 0.366L7.424 0.366 7.424 15.833 0.066 15.833z"/>
    </defs>
    <g fill="none" fill-rule="evenodd">
        <path fill="#002F35" d="M23.657 0L0 23.658 0 33.903 4.799 38.702 15.044 38.702 38.701 15.044 38.701 4.8 33.902 0zM74.913 0L70.115 4.8 70.115 15.044 93.772 38.702 104.016 38.702 108.816 33.903 108.816 23.658 85.158 0z" transform="translate(28 22)"/>
        <g>
            <path fill="#FFF" d="M15.78 2.755c0-1.285-1.042-2.327-2.327-2.327-1.286 0-2.328 1.042-2.328 2.327s1.042 2.327 2.328 2.327c1.285 0 2.327-1.042 2.327-2.327M86.018 23.56c0-1.285-1.042-2.327-2.327-2.327-1.286 0-2.328 1.042-2.328 2.327s1.042 2.327 2.328 2.327c1.285 0 2.327-1.042 2.327-2.327" transform="translate(28 22) translate(15.833 6.4)"/>
            <path fill="#FFCE32" d="M77.267 99.998L71.173 104.088 62.555 91.248 68.649 87.158z" transform="translate(28 22) translate(15.833 6.4)"/>
            <g transform="translate(28 22) translate(15.833 6.4) translate(40.833 97.5)">
                <mask id="prefix__b" fill="#fff">
                    <use xlink:href="#prefix__a"/>
                </mask>
                <path fill="#FFCE32" d="M7.424 0.376L7.405 15.834 0.066 15.823 0.085 0.366z" mask="url(#prefix__b)"/>
            </g>
            <path fill="#FFCE32" d="M26.232 91.247L17.613 104.085 11.524 99.996 20.142 87.158z" transform="translate(28 22) translate(15.833 6.4)"/>
            <path fill="#23E5DB" d="M76.018 49.955l.022-.021-38.974-38.975c-3.13-3.13-8.207-3.122-11.328.016L2.945 33.898c-3.108 3.126-3.1 8.178.017 11.296l3.815 3.815L41.548 83.78l.013-.012c1.098 1.13 2.632 1.834 4.332 1.834 3.335 0 6.04-2.704 6.04-6.04 0-1.583-.614-3.018-1.61-4.095 1.079 1 2.517 1.616 4.103 1.616 3.336 0 6.04-2.705 6.04-6.041 0-1.618-.64-3.083-1.674-4.167 1.081 1.02 2.535 1.648 4.138 1.648 3.336 0 6.04-2.704 6.04-6.04 0-1.567-.602-2.99-1.58-4.063l.026-.024c1.076.99 2.507 1.6 4.083 1.6 3.336 0 6.04-2.706 6.04-6.042 0-1.535-.577-2.933-1.521-3.999" transform="translate(28 22) translate(15.833 6.4)"/>
            <path fill="#00A49F" d="M76.752 35.239L51.642 10.29c-3.04-2.991-7.944-2.775-10.949.251L21.518 29.714c-1.526 1.322-2.384 3.383-1.999 5.624.441 2.563 2.58 4.6 5.16 4.924 1.951.245 3.735-.435 4.997-1.65l.01.01 11.84-11.84c3.125-3.125 8.218-3.145 11.342-.021l20.644 20.644 3.24-3.384c2.425-2.425 2.425-6.357 0-8.782" transform="translate(28 22) translate(15.833 6.4)"/>
        </g>
    </g>
</svg>
